<?xml version="1.0" standalone="no"?>
<!DOCTYPE svg PUBLIC "-//W3C//DTD SVG 20010904//EN"
 "http://www.w3.org/TR/2001/REC-SVG-20010904/DTD/svg10.dtd">
<svg version="1.0" xmlns="http://www.w3.org/2000/svg"
 width="2584.000000pt" height="2329.000000pt" viewBox="0 0 2584.000000 2329.000000"
 preserveAspectRatio="xMidYMid meet">
<metadata>
Created by potrace 1.16, written by Peter Selinger 2001-2019
</metadata>
<g transform="translate(0.000000,2329.000000) scale(0.100000,-0.100000)"
fill="#0e0340" stroke="none">
<path d="M12821 23275 c-54 -17 -98 -57 -123 -113 -18 -41 -19 -59 -8 -640
l11 -599 -224 -419 c-370 -692 -641 -1206 -1332 -2524 -361 -690 -753 -1437
-870 -1660 -117 -223 -387 -738 -600 -1145 -213 -407 -431 -823 -485 -925 -54
-102 -158 -302 -232 -445 -511 -984 -1225 -2353 -1528 -2930 -228 -434 -493
-939 -603 -1150 -71 -137 -136 -257 -143 -265 -11 -14 -584 -1104 -1534 -2920
-194 -371 -357 -679 -361 -684 -28 -32 -479 814 -662 1244 -457 1074 -700
2140 -758 3335 -12 246 -8 1004 6 1038 7 16 61 17 939 17 884 0 933 1 971 19
171 79 141 330 -45 370 -35 8 -332 11 -941 11 l-890 0 5 33 c3 17 15 104 26
192 41 315 113 696 196 1027 369 1479 1071 2816 2090 3983 169 194 641 670
819 826 134 118 363 309 442 370 l52 40 508 -423 c279 -233 521 -429 536 -436
71 -31 184 -2 229 59 69 93 60 198 -23 275 -19 18 -231 196 -472 397 -241 201
-439 369 -439 374 -1 4 57 48 128 96 1122 766 2393 1287 3684 1512 85 15 177
32 203 39 l48 11 235 440 c129 242 258 482 286 534 l50 94 -68 -7 c-742 -74
-1317 -181 -1951 -362 -642 -183 -1217 -407 -1823 -710 -253 -127 -621 -331
-815 -452 -164 -102 -528 -347 -655 -439 -105 -78 -127 -90 -140 -79 -8 7
-343 287 -745 622 -401 334 -833 695 -960 801 -182 153 -240 196 -278 208
-172 52 -320 -139 -226 -291 12 -19 429 -375 954 -814 513 -429 936 -783 938
-787 3 -4 -38 -44 -92 -88 -511 -424 -1028 -948 -1450 -1470 -903 -1117 -1555
-2371 -1945 -3740 -159 -560 -277 -1164 -337 -1722 l-12 -113 -1098 0 c-761 0
-1114 -3 -1149 -11 -150 -32 -210 -217 -107 -327 56 -61 -23 -57 1201 -62
l1119 -5 -4 -100 c-8 -214 -2 -999 10 -1170 79 -1168 301 -2177 706 -3210 128
-326 194 -474 370 -830 221 -446 425 -798 689 -1191 l106 -157 -44 -86 c-24
-47 -224 -429 -444 -848 l-400 -763 1184 0 1184 0 74 -69 c689 -638 1629
-1272 2517 -1696 1077 -515 2179 -834 3329 -965 366 -41 775 -70 1007 -70
l102 0 3 -594 3 -594 30 -44 c81 -116 249 -116 330 0 l30 44 3 594 c1 327 6
594 10 594 4 0 102 5 217 10 430 21 943 79 1365 156 1916 345 3685 1211 5151
2521 l127 113 1225 0 1225 0 -463 882 -462 883 97 145 c728 1091 1251 2341
1524 3640 179 853 244 1635 213 2563 l-8 247 1153 0 c1100 0 1155 1 1193 19
171 79 141 330 -45 370 -35 8 -401 11 -1194 11 l-1143 0 -22 196 c-171 1505
-695 3006 -1499 4299 -651 1046 -1487 1982 -2435 2725 -101 79 -106 85 -90
101 10 9 239 200 508 425 1086 905 1151 961 1170 999 56 120 2 245 -123 281
-107 31 -58 67 -1030 -746 l-873 -730 -182 124 c-1421 963 -3065 1564 -4765
1742 -89 10 -164 15 -167 12 -3 -2 126 -246 287 -540 l292 -536 75 -12 c112
-18 445 -86 616 -126 974 -230 1987 -658 2839 -1200 105 -67 191 -127 191
-132 0 -6 -241 -212 -535 -457 -294 -245 -554 -465 -577 -489 -73 -76 -81
-174 -22 -256 50 -69 161 -101 236 -68 15 7 299 239 631 516 331 277 609 505
616 508 21 8 288 -200 611 -476 143 -122 577 -531 625 -587 8 -10 67 -74 131
-143 824 -881 1484 -1940 1924 -3090 156 -406 299 -884 395 -1318 66 -298 102
-514 165 -984 l5 -38 -844 0 c-577 0 -861 -3 -896 -11 -190 -41 -216 -299 -38
-374 33 -13 146 -15 922 -15 834 0 885 -1 890 -17 3 -10 10 -157 17 -328 57
-1499 -264 -3029 -924 -4400 -116 -242 -212 -424 -322 -615 -43 -74 -88 -152
-99 -172 -12 -21 -23 -38 -26 -38 -4 0 -665 1256 -934 1774 -110 213 -920
1761 -1069 2041 -52 99 -350 668 -662 1265 -313 597 -666 1272 -785 1500 -120
228 -295 564 -390 745 -94 182 -196 375 -225 430 -29 55 -106 204 -172 330
-175 334 -777 1485 -833 1590 -26 50 -111 214 -190 365 -78 151 -153 291 -166
311 -12 20 -294 554 -625 1185 -331 632 -725 1385 -876 1674 -322 614 -421
800 -750 1403 l-244 448 -10 567 c-11 631 -10 623 -79 686 -36 32 -94 57 -130
55 -8 0 -35 -6 -59 -14z m-56 -4942 c8 -56 56 -120 108 -144 112 -50 245 6
277 119 7 26 7 226 -1 662 -6 344 -9 668 -7 720 l3 94 314 -599 c173 -330 381
-726 461 -880 643 -1227 1546 -2949 1628 -3104 36 -68 49 -102 39 -98 -40 15
-329 48 -507 57 -107 5 -592 10 -1077 10 l-883 0 0 955 c0 1045 3 994 -58
1058 -41 43 -81 60 -142 60 -61 0 -101 -17 -142 -60 -61 -64 -58 -13 -58
-1058 l0 -955 -862 0 c-475 0 -948 -5 -1053 -10 -166 -9 -425 -37 -525 -57
l-33 -6 55 104 c30 57 82 156 116 219 33 63 227 433 431 822 204 389 371 712
371 718 0 6 124 248 277 538 152 290 347 662 433 827 429 820 707 1349 754
1435 l51 95 12 -740 c7 -407 15 -759 18 -782z m2489 -4146 c167 -25 381 -71
516 -113 119 -37 343 -125 425 -166 l47 -24 272 -520 c149 -285 307 -586 350
-669 43 -82 154 -294 246 -470 92 -176 312 -596 489 -934 l322 -614 -4 -1896
c-3 -1709 -5 -1907 -20 -2004 -91 -590 -292 -1060 -644 -1506 -95 -120 -371
-395 -483 -482 -398 -308 -821 -505 -1280 -598 -291 -59 -160 -56 -2560 -56
-2087 0 -2222 1 -2335 18 -692 104 -1277 397 -1747 874 -139 141 -180 187
-266 301 -277 366 -470 787 -557 1218 -63 307 -59 159 -62 2263 l-4 1923 79
152 c44 83 200 381 347 661 147 281 463 884 702 1340 240 457 454 865 477 907
l41 77 95 45 c372 174 756 271 1150 290 36 1 1015 2 2175 1 1932 -1 2120 -3
2229 -18z m-8231 -7462 c42 -318 89 -536 174 -800 70 -219 205 -527 308 -706
25 -43 45 -81 45 -84 0 -3 -569 -5 -1265 -5 -696 0 -1265 3 -1265 6 0 3 154
299 342 657 188 359 407 778 488 932 81 154 258 494 395 755 137 261 252 477
256 480 4 3 116 214 250 470 l244 465 6 -1020 c5 -881 8 -1038 22 -1150z
m12027 1790 c213 -405 919 -1750 1376 -2622 212 -403 387 -739 390 -748 6 -13
-130 -15 -1245 -15 l-1251 0 30 53 c52 88 166 318 215 433 104 243 206 590
255 864 52 297 53 310 57 1365 2 545 8 983 13 975 4 -8 76 -145 160 -305z
m-10566 -4458 c406 -326 884 -578 1366 -721 185 -56 490 -119 690 -143 135
-17 296 -18 2395 -18 2514 0 2338 -5 2720 71 351 70 621 160 961 320 223 105
542 305 753 473 l114 91 474 0 c288 0 472 -4 468 -9 -10 -17 -284 -204 -480
-328 -501 -318 -1020 -581 -1594 -808 -830 -328 -1717 -537 -2631 -620 -135
-12 -494 -35 -547 -35 -10 0 -13 50 -13 255 0 282 -3 301 -63 363 -20 20 -52
39 -84 48 -48 14 -58 14 -106 0 -32 -9 -64 -28 -84 -48 -60 -62 -63 -81 -63
-363 l0 -255 -92 0 c-51 0 -178 5 -283 10 -1028 54 -2045 274 -2972 641 -586
233 -1119 503 -1623 823 -183 117 -470 313 -470 321 0 3 241 5 536 5 l536 0
92 -73z"/>
<path d="M10291 12879 c-133 -10 -209 -26 -348 -71 -616 -198 -1035 -723
-1095 -1372 -34 -380 82 -778 318 -1088 73 -95 239 -256 337 -325 206 -145
468 -249 710 -282 110 -15 5304 -15 5414 0 499 68 947 379 1181 819 279 525
247 1143 -84 1636 -186 276 -483 499 -810 608 -142 47 -224 63 -379 76 -150
12 -5095 12 -5244 -1z m5319 -1023 c98 -37 165 -83 237 -159 72 -78 108 -143
133 -243 75 -294 -84 -592 -371 -696 l-64 -23 -2625 0 -2625 0 -72 26 c-282
103 -438 401 -363 693 25 100 61 165 133 243 94 101 200 160 327 183 25 4
1208 7 2630 6 l2585 -1 75 -29z"/>
<path d="M9617 8836 c-60 -16 -115 -60 -147 -117 -25 -44 -25 -44 -28 -352 -3
-348 1 -376 65 -442 74 -76 62 -75 573 -75 511 0 499 -1 573 75 64 66 68 94
65 442 -3 307 -3 308 -28 353 -33 58 -96 105 -160 119 -76 16 -850 14 -913 -3z"/>
<path d="M11510 8839 c-82 -16 -157 -86 -180 -168 -6 -20 -10 -163 -10 -327 0
-327 4 -355 67 -419 74 -76 63 -75 573 -75 511 0 499 -1 573 75 64 66 68 94
65 442 -3 295 -4 310 -25 349 -12 23 -37 54 -55 69 -72 61 -64 60 -533 62
-236 1 -450 -3 -475 -8z"/>
<path d="M13393 8840 c-77 -16 -130 -57 -169 -130 -17 -32 -19 -65 -22 -342
-2 -189 1 -322 7 -345 16 -60 65 -118 123 -147 l52 -26 456 0 456 0 52 26 c58
29 107 87 123 147 6 23 9 156 7 345 -3 292 -4 309 -25 347 -27 51 -67 89 -118
112 -36 16 -79 18 -470 20 -236 1 -449 -2 -472 -7z"/>
<path d="M15085 8483 c-89 -20 -141 -58 -178 -127 l-22 -41 -3 -1349 c-3
-1502 -7 -1407 65 -1481 75 -77 53 -75 653 -75 600 0 578 -2 653 75 72 74 68
-21 65 1481 l-3 1349 -22 40 c-27 51 -67 89 -118 112 -37 17 -82 18 -555 20
-283 0 -524 -1 -535 -4z m615 -1223 l0 -170 150 0 150 0 0 -100 0 -100 -150 0
-150 0 0 -170 0 -170 -100 0 -100 0 0 170 0 170 -150 0 -150 0 0 100 0 100
150 0 150 0 0 170 0 170 100 0 100 0 0 -170z"/>
<path d="M13380 7441 c-75 -24 -127 -70 -159 -141 -19 -42 -21 -65 -21 -346 0
-325 4 -352 55 -420 13 -17 48 -44 77 -58 l52 -26 455 0 c512 0 500 -1 574 75
64 66 68 94 65 442 -3 278 -5 311 -22 343 -26 49 -64 88 -111 113 -39 22 -50
22 -490 24 -247 1 -461 -2 -475 -6z"/>
<path d="M9633 7360 c-77 -16 -130 -57 -169 -130 -17 -32 -19 -62 -19 -365 0
-365 -1 -357 67 -425 70 -71 62 -70 568 -70 506 0 498 -1 568 70 68 68 67 60
67 425 0 319 -1 331 -22 370 -27 51 -67 89 -118 112 -36 16 -79 18 -470 20
-236 1 -449 -2 -472 -7z"/>
<path d="M11510 7359 c-82 -16 -157 -86 -180 -168 -6 -20 -10 -163 -10 -327 0
-327 4 -355 67 -419 74 -76 63 -75 573 -75 511 0 499 -1 573 75 64 66 68 94
65 442 -3 295 -4 310 -25 349 -12 23 -37 54 -55 69 -72 61 -64 60 -533 62
-236 1 -450 -3 -475 -8z"/>
<path d="M9633 5880 c-77 -16 -130 -57 -169 -130 -17 -32 -19 -65 -22 -342 -2
-189 1 -322 7 -345 16 -60 65 -118 123 -147 l52 -26 456 0 456 0 52 26 c58 29
107 87 123 147 6 23 9 156 7 345 -3 292 -4 309 -25 347 -27 51 -67 89 -118
112 -36 16 -79 18 -470 20 -236 1 -449 -2 -472 -7z"/>
<path d="M11513 5880 c-77 -16 -130 -57 -169 -130 -17 -32 -19 -65 -22 -343
-3 -348 1 -376 65 -442 74 -76 62 -75 574 -75 l455 0 52 26 c58 29 107 87 123
147 6 23 9 156 7 345 -3 292 -4 309 -25 347 -27 51 -67 89 -118 112 -36 16
-79 18 -470 20 -236 1 -449 -2 -472 -7z"/>
<path d="M13393 5880 c-77 -16 -130 -57 -169 -130 -17 -32 -19 -65 -22 -342
-2 -189 1 -322 7 -345 16 -60 65 -118 123 -147 l52 -26 456 0 456 0 52 26 c58
29 107 87 123 147 6 23 9 156 7 345 -3 292 -4 309 -25 347 -27 51 -67 89 -118
112 -36 16 -79 18 -470 20 -236 1 -449 -2 -472 -7z"/>
</g>
</svg>
